<svg width="73" height="43" viewBox="0 0 73 43" fill="none" xmlns="http://www.w3.org/2000/svg">
<g clip-path="url(#clip0_1327_6131)">
<path d="M51.3575 23.9704L42.1132 22.1965L51.3502 18.5332L53.167 20.61L51.3575 23.9704Z" fill="#FF005C"/>
<path d="M63.5582 19.2761C62.4565 16.8892 61.6466 14.8485 61.3547 14.3581C60.5084 12.9447 59.2534 13.024 58.1736 13.2115C55.2989 13.7019 54.1752 14.1995 49.1044 15.5335C48.3601 15.7354 46.952 16.1465 46.1786 15.8797C44.121 15.1874 43.5008 14.6321 42.5159 14.7403C40.9909 14.9134 37.8536 16.37 34.4462 18.829C33.381 19.5862 33.505 20.4948 33.3153 21.0933C33.2788 21.2231 33.3591 21.3529 33.4977 21.3673C33.9939 21.4178 39.3931 21.8793 39.6411 21.9154C39.5609 21.8721 39.5171 21.8 39.5171 21.7207C39.5171 21.6486 39.5536 21.5765 39.6265 21.5404C41.166 20.7183 46.7696 17.7906 50.155 16.471C54.7808 14.6538 55.8971 14.4591 57.3053 14.3293C57.6336 14.3004 58.0933 14.322 58.4289 14.3437C58.6989 14.3653 58.9397 14.5312 59.0272 14.7764C59.6693 16.6296 61.5371 20.8193 62.5294 22.2038C62.5294 22.2038 62.3543 22.5355 62.0187 22.55C61.756 22.55 61.2307 22.0668 60.9024 21.7856C60.8294 21.7279 60.7272 21.7207 60.6397 21.7712C55.0873 25.1532 51.0889 26.6315 50.5125 26.8334C50.4687 26.8478 50.4177 26.8478 50.3666 26.8334L47.5357 25.7878C47.5357 25.7878 47.6451 25.7012 47.9078 25.1748C47.9661 25.0522 47.9953 24.9152 47.988 24.8287C47.9661 24.3816 47.5357 24.2806 47.3387 24.259C46.5871 24.1652 26.3255 21.2159 21.2473 20.7183C19.0877 20.502 17.0374 21.5981 16.1546 22.7374V22.7663L19.0366 25.7301C19.1022 25.795 19.1971 25.8166 19.2774 25.7733L21.5392 24.7421C21.5392 24.7421 21.8529 25.6868 21.5611 25.8527C19.6786 26.8694 17.8619 27.7852 16.1035 28.6938C15.3958 29.0616 15.4103 29.7611 15.1842 30.7418C15.0893 31.1528 15.0382 31.5278 15.0382 31.5278C15.0382 31.5278 18.9855 29.5736 21.4006 28.4342C21.4881 28.3982 21.583 28.4126 21.6486 28.4775C21.9916 28.8453 22.1083 28.9246 22.3418 29.1626C22.4439 29.2707 22.422 29.4294 22.2907 29.5015C21.7216 29.7971 21.1306 30.1072 20.6782 30.374C20.3207 30.5832 20.6782 31.2898 20.6782 31.2898L27.2448 28.2179C27.2448 28.2179 27.6534 28.6145 26.9311 29.0616C25.8075 29.7539 15.4541 34.9747 14.564 34.9964C12.2146 35.0541 7.78579 30.6841 6.18062 30.0207C4.83081 29.4582 3.37886 30.374 1.40158 31.5206C0.861663 31.8379 1.18999 32.6023 1.18999 32.6023L4.05012 31.1673C4.05012 31.1673 4.40034 31.5711 4.00634 31.8163C2.62005 32.6816 0.620887 33.5541 0.314445 33.7705C-0.137921 34.0878 0.0371884 35.5877 0.0371884 35.5877L2.74409 34.3474C2.82435 34.3113 2.9265 34.3185 2.96298 34.3618L8.76348 39.8206C9.09911 39.7341 9.41285 39.6403 9.83603 39.4601L4.99863 34.3762C4.90378 34.268 4.93296 34.1022 5.057 34.0373C5.55314 33.7921 6.14413 33.6046 6.9759 34.2392C7.67634 34.7656 10.1352 36.7343 12.5137 36.5251C13.309 36.4602 13.3163 36.6982 13.3163 36.6982C13.3163 36.6982 12.3095 37.1813 11.1056 37.8303C10.5146 38.1548 10.9961 39.013 10.9961 39.013C17.125 36.5251 24.6766 33.4388 25.7272 32.9845C25.8075 32.9556 25.8804 32.97 25.9461 33.0133L27.7191 34.4051C27.9672 34.7945 40.5751 30.0063 44.4639 28.0593C44.6828 27.9511 46.6601 28.0448 47.6159 28.0304C48.0537 28.0304 48.0391 28.2179 48.0391 28.2179C48.0391 28.2179 16.4829 40.6499 8.74889 40.3615H8.7343L7.08535 41.0681C8.05575 41.7027 7.82227 42.7916 9.47122 41.9479C9.56607 42.1714 9.68281 42.4094 9.80684 42.6618C10.0184 43.1161 10.8283 43.1161 12.2219 42.6474C18.1391 40.6643 44.7704 32.8042 50.7314 30.3668C54.095 28.9967 58.75 27.1002 61.6539 25.319C64.5213 23.5739 65.105 22.6725 63.5436 19.3049L63.5582 19.2761ZM38.087 19.3987C37.7295 19.6511 35.3728 19.2184 35.3728 19.2184C35.3728 19.2184 37.9849 16.9253 40.4656 16.6296C41.2025 16.5431 42.6983 17.1128 42.6983 17.1128C42.6983 17.1128 39.3712 18.4829 38.087 19.3987ZM46.0035 17.12L42.6472 18.8218C42.6472 18.8218 41.8665 18.3531 42.742 17.9637C42.9682 17.8627 43.4862 17.5743 43.9021 17.3579C44.1356 17.2426 44.1137 16.9108 43.873 16.8099L41.3776 15.822C41.8008 15.4903 42.4575 15.2883 43.085 15.4758C43.4498 15.584 44.9674 16.2186 45.9597 16.6296C46.2661 16.7594 46.1932 17.0334 46.0035 17.12ZM46.8425 25.1748C46.5142 25.658 45.7481 26.5449 44.6245 26.3646C44.0772 26.2709 21.6997 21.7856 21.6486 21.7784C21.4881 21.7351 21.51 21.4034 21.7946 21.4394L46.6966 24.8359C46.8571 24.8647 46.9374 25.0378 46.8425 25.1748Z" fill="#FF005C"/>
<path d="M63.0128 15.0785C63.0128 15.0785 62.969 15.0857 62.9471 15.0929C62.9252 15.1001 62.9033 15.1146 62.8887 15.129L63.1224 15.0713H63.0128V15.0785Z" fill="#FF005C"/>
<path d="M72.203 31.717C72.0133 30.9742 70.6416 26.0563 69.8536 24.2535L66.242 17.8428C65.899 18.3043 65.4904 18.7946 65.1037 19.1552C65.0308 19.2129 64.9578 19.2634 64.863 19.3066C64.7535 19.3499 64.6441 19.3787 64.5273 19.3787L66.4754 25.7029C66.7673 26.7197 67.4458 27.585 68.0295 28.4576C68.3214 28.8902 70.3935 31.9478 71.1888 33.116C71.3566 33.3611 71.7287 33.3683 71.8892 33.116C72.1811 32.6761 72.3197 32.1497 72.203 31.7098V31.717ZM71.4952 32.604L71.4515 32.6689L71.4077 32.604C71.3785 32.5607 68.4527 28.3061 67.3948 26.662C67.0737 26.1644 67.4531 25.9192 67.4531 25.9192L67.4969 25.8976L67.5261 25.9337C67.672 26.1212 71.1231 30.556 71.5682 31.3781C71.9111 31.991 71.5098 32.5895 71.4952 32.6112V32.604Z" fill="#FF005C"/>
<path d="M62.6087 7.95599C62.2147 6.62914 61.5362 5.77101 60.9452 4.89125C60.6534 4.45137 58.501 1.27847 57.7422 0.160748C57.6035 -0.0483745 57.2825 -0.0483745 57.1439 0.160748C56.8301 0.622261 56.6988 1.19915 56.8155 1.66066C57.0052 2.3962 58.3332 7.28535 59.1284 9.08813L62.4263 14.8282C62.5066 14.7417 62.6087 14.6623 62.7255 14.6119C62.8057 14.5758 62.8933 14.5542 62.9736 14.5542C63.4113 14.5253 64.0899 14.5253 64.7101 14.5398L62.616 7.94877L62.6087 7.95599ZM61.5435 7.52332L61.4997 7.55216L61.4705 7.51611C61.3246 7.32862 57.8808 2.89377 57.4284 2.0717C57.0928 1.45875 57.4868 0.860228 57.5087 0.838595L57.5525 0.773695L57.5962 0.838595C57.6254 0.881862 60.5512 5.14364 61.6092 6.78778C61.9302 7.28535 61.5508 7.53053 61.5508 7.53053L61.5435 7.52332Z" fill="#FF005C"/>
<path d="M66.7019 15.0803C65.8044 14.8856 64.1044 14.8712 63.0829 14.9361H62.9735C62.9735 14.9361 62.9297 14.9433 62.9005 14.9505C62.8786 14.9577 62.8568 14.9721 62.8349 14.9938C62.7181 15.0803 62.6452 15.239 62.6962 15.3688C63.207 16.6451 63.6593 17.6331 64.2503 18.8013C64.3306 18.9599 64.5495 18.9815 64.7173 18.9166C64.7538 18.9022 64.783 18.8806 64.8121 18.8589C65.6804 18.0585 66.4976 16.9264 67.0156 15.8014C67.1761 15.4481 67.074 15.1668 66.7019 15.0875V15.0803ZM63.7469 16.7966L63.2289 15.6139C63.2289 15.6139 63.134 15.4337 63.3456 15.3471C63.3602 15.3399 63.3821 15.3327 63.404 15.3255C63.404 15.3255 65.5564 15.2534 66.2276 15.3832C66.5851 15.4553 66.5997 15.5779 66.5997 15.5779L63.7469 16.7966Z" fill="#FF005C"/>
<path d="M55.7418 15.4099C55.7418 15.4099 55.3332 17.0685 54.6984 18.9866L53.5091 17.5084L52.546 17.941L54.2971 20.126C53.7499 21.6043 53.0933 23.0681 52.3928 23.9335L54.1439 23.1475C54.5452 22.7797 54.8662 22.0442 55.1143 21.1572L56.0774 22.3614L57.0405 21.9288L55.4062 19.888C55.7564 18.042 55.8585 16.0445 55.7345 15.4099H55.7418Z" fill="#FF005C"/>
</g>
<defs>
<clipPath id="clip0_1327_6131">
<rect width="72.24" height="43" fill="white"/>
</clipPath>
</defs>
</svg>
