<svg width="43" height="43" viewBox="0 0 43 43" fill="none" xmlns="http://www.w3.org/2000/svg">
<mask id="mask0_1327_6204" style="mask-type:luminance" maskUnits="userSpaceOnUse" x="0" y="0" width="43" height="43">
<path d="M43 0H0V43H43V0Z" fill="white"/>
</mask>
<g mask="url(#mask0_1327_6204)">
<path d="M21.5 43C33.3741 43 43 33.3741 43 21.5C43 9.6259 33.3741 0 21.5 0C9.62589 0 0 9.6259 0 21.5C0 33.3741 9.62589 43 21.5 43Z" fill="#DD1C4B"/>
<path d="M42.7501 18.21C42.7671 18.5636 42.7768 18.9187 42.7768 19.2761C42.7863 31.1502 33.1682 40.7838 21.2941 40.7934C10.6771 40.8019 1.64355 33.0595 0.0273438 22.5663C0.628973 34.4251 10.7303 43.551 22.5891 42.9494C34.4479 42.3477 43.5739 32.2464 42.9721 20.3876C42.9351 19.6583 42.861 18.9316 42.7501 18.21Z" fill="#B21D48"/>
<path d="M28.8829 21.4889L41.6917 14.0996C40.8395 11.7795 39.5929 9.62392 38.007 7.72813L25.2064 15.113V0.324723C22.7541 -0.108241 20.2449 -0.108241 17.7926 0.324723V15.073L5.02679 7.6881C3.42428 9.5939 2.16551 11.7639 1.30653 14.101L14.1161 21.5148L1.30727 28.9004C2.15949 31.2205 3.40603 33.376 4.99191 35.2719L17.7926 27.887V42.6753C20.2449 43.1083 22.7541 43.1083 25.2064 42.6753V27.927L37.9722 35.3119C39.5747 33.4061 40.8334 31.2361 41.6924 28.899L28.8829 21.4889Z" fill="#F6F6E7"/>
<path d="M12.6038 38.5505C13.4228 38.5505 14.0866 37.8866 14.0866 37.0677C14.0866 36.2488 13.4228 35.585 12.6038 35.585C11.7849 35.585 11.1211 36.2488 11.1211 37.0677C11.1211 37.8866 11.7849 38.5505 12.6038 38.5505Z" fill="#F6F6E7"/>
<path d="M30.3968 38.5505C31.2157 38.5505 31.8796 37.8866 31.8796 37.0677C31.8796 36.2488 31.2157 35.585 30.3968 35.585C29.5779 35.585 28.9141 36.2488 28.9141 37.0677C28.9141 37.8866 29.5779 38.5505 30.3968 38.5505Z" fill="#F6F6E7"/>
<path d="M39.2933 22.9821C40.1122 22.9821 40.7761 22.3183 40.7761 21.4994C40.7761 20.6805 40.1122 20.0166 39.2933 20.0166C38.4744 20.0166 37.8105 20.6805 37.8105 21.4994C37.8105 22.3183 38.4744 22.9821 39.2933 22.9821Z" fill="#F6F6E7"/>
<path d="M30.3968 7.4128C31.2157 7.4128 31.8796 6.74893 31.8796 5.93003C31.8796 5.11114 31.2157 4.44727 30.3968 4.44727C29.5779 4.44727 28.9141 5.11114 28.9141 5.93003C28.9141 6.74893 29.5779 7.4128 30.3968 7.4128Z" fill="#F6F6E7"/>
<path d="M12.6038 7.4128C13.4228 7.4128 14.0866 6.74893 14.0866 5.93003C14.0866 5.11114 13.4228 4.44727 12.6038 4.44727C11.7849 4.44727 11.1211 5.11114 11.1211 5.93003C11.1211 6.74893 11.7849 7.4128 12.6038 7.4128Z" fill="#F6F6E7"/>
<path d="M3.70738 22.9824C4.5263 22.9824 5.19014 22.3185 5.19014 21.4996C5.19014 20.6807 4.5263 20.0168 3.70738 20.0168C2.88848 20.0168 2.22462 20.6807 2.22462 21.4996C2.22462 22.3185 2.88848 22.9824 3.70738 22.9824Z" fill="#F6F6E7"/>
<path d="M31.4607 11.5389C25.9596 6.03783 17.0408 6.03783 11.5398 11.5389C6.03886 17.0399 6.03877 25.9588 11.5398 31.4597C17.0408 36.9607 25.9597 36.9608 31.4607 31.4597C36.9616 25.9587 36.9616 17.0399 31.4607 11.5389ZM26.6899 30.4878C21.7256 33.3541 15.3777 31.6534 12.5114 26.6891C9.64501 21.7249 11.3457 15.377 16.31 12.5106C21.2743 9.64428 27.6222 11.345 30.4885 16.3093C30.4885 16.3092 30.4886 16.3094 30.4885 16.3093C33.3545 21.2735 31.654 27.6215 26.6899 30.4878Z" fill="#DD1C4B"/>
<path d="M29.8863 13.1118C25.2537 8.4795 17.743 8.47967 13.1108 13.1123C8.47857 17.7449 8.47866 25.2555 13.1113 29.8877C17.7437 34.5199 25.2539 34.5199 29.8863 29.8877C34.5189 25.2554 34.519 17.7448 29.8868 13.1123L29.8863 13.1118ZM25.8724 29.0692C21.6923 31.4841 16.3462 30.0531 13.9313 25.873C11.5164 21.6929 12.9475 16.3467 17.1276 13.9319C21.3077 11.517 26.6539 12.9481 29.0687 17.1281C29.0696 17.1298 29.0705 17.1314 29.0715 17.133C31.4829 21.3127 30.0509 26.6558 25.8724 29.0692Z" fill="#F6F6E7"/>
<path d="M21.5004 31.8807C27.2327 31.8807 31.8797 27.2337 31.8797 21.5014C31.8797 15.769 27.2327 11.1221 21.5004 11.1221C15.7681 11.1221 11.1211 15.769 11.1211 21.5014C11.1211 27.2337 15.7681 31.8807 21.5004 31.8807Z" fill="#DD1C4B"/>
</g>
</svg>
