<svg width="41" height="41" viewBox="0 0 41 41" fill="none" xmlns="http://www.w3.org/2000/svg">
<path d="M5.0937 38.416L2.58594 35.9082L14.7687 23.7246L17.2773 26.2332L5.0937 38.416Z" fill="url(#paint0_linear_1329_9207)"/>
<path d="M8.94603 29.458L2.58203 35.822L5.09065 38.3306L11.4547 31.9666L8.94603 29.458Z" fill="url(#paint1_linear_1329_9207)"/>
<path d="M13.4242 30.3534L10.6472 27.5764C9.98976 26.9305 9.61232 26.0521 9.59624 25.1306C9.58015 24.209 9.9267 23.318 10.5612 22.6495L29.6386 1.41781C29.9033 1.15275 30.2386 0.969539 30.6047 0.890079C30.9707 0.81062 31.3519 0.838281 31.7026 0.969753C33.0468 1.50725 35.1065 2.58225 36.8093 4.28419C38.5121 5.98613 39.5862 8.13613 40.1237 9.39087C40.2552 9.7416 40.2829 10.1228 40.2034 10.4888C40.1239 10.8548 39.9407 11.1902 39.6757 11.4549L18.4371 30.5331C16.9175 31.787 14.7675 31.6976 13.4242 30.3534Z" fill="url(#paint2_linear_1329_9207)"/>
<path d="M13.4242 30.3534L10.6472 27.5764C9.98976 26.9305 9.61232 26.0521 9.59624 25.1306C9.58015 24.209 9.9267 23.318 10.5612 22.6495L29.6386 1.41781C29.9033 1.15275 30.2386 0.969539 30.6047 0.890079C30.9707 0.81062 31.3519 0.838281 31.7026 0.969753C33.0468 1.50725 35.1065 2.58225 36.8093 4.28419C38.5121 5.98613 39.5862 8.13613 40.1237 9.39087C40.2552 9.7416 40.2829 10.1228 40.2034 10.4888C40.1239 10.8548 39.9407 11.1902 39.6757 11.4549L18.4371 30.5331C16.9175 31.787 14.7675 31.6976 13.4242 30.3534Z" fill="url(#paint3_linear_1329_9207)"/>
<path d="M3.57063 39.9358L1.06545 37.4306C0.98058 37.3498 0.913013 37.2525 0.866846 37.1447C0.82068 37.037 0.796875 36.9209 0.796875 36.8037C0.796875 36.6865 0.82068 36.5704 0.866846 36.4627C0.913013 36.3549 0.98058 36.2576 1.06545 36.1768L2.31933 34.9229C2.40021 34.838 2.49748 34.7704 2.60525 34.7243C2.71302 34.6781 2.82903 34.6543 2.94627 34.6543C3.06351 34.6543 3.17953 34.6781 3.2873 34.7243C3.39506 34.7704 3.49233 34.838 3.57321 34.9229L6.08183 37.4315C6.16671 37.5124 6.23427 37.6096 6.28044 37.7174C6.32661 37.8252 6.35041 37.9412 6.35041 38.0584C6.35041 38.1757 6.32661 38.2917 6.28044 38.3995C6.23427 38.5072 6.16671 38.6045 6.08183 38.6854L4.82451 39.9358C4.74363 40.0207 4.64636 40.0883 4.5386 40.1344C4.43083 40.1806 4.31481 40.2044 4.19757 40.2044C4.08033 40.2044 3.96432 40.1806 3.85655 40.1344C3.74878 40.0883 3.65151 40.0207 3.57063 39.9358Z" fill="url(#paint4_linear_1329_9207)"/>
<path d="M20.1426 11.899L29.1012 20.8576L33.1329 17.274L23.7262 7.86816L20.1426 11.899Z" fill="url(#paint5_linear_1329_9207)"/>
<path d="M16.2011 16.2861L10.5569 22.6501C9.303 24.0838 9.303 26.2338 10.6429 27.5771L13.4198 30.354C14.0658 31.0115 14.9441 31.3889 15.8657 31.405C16.7873 31.4211 17.6783 31.0745 18.3468 30.44L24.6222 24.8001C21.8452 22.0232 18.978 19.1568 16.2011 16.2861Z" fill="url(#paint6_linear_1329_9207)"/>
<path d="M2.40533 34.8333C2.38252 34.8333 2.36065 34.8423 2.34452 34.8584C2.32839 34.8746 2.31933 34.8964 2.31933 34.9193L1.06545 36.1766C0.98058 36.2575 0.913013 36.3547 0.866846 36.4625C0.82068 36.5703 0.796875 36.6863 0.796875 36.8035C0.796875 36.9208 0.82068 37.0368 0.866846 37.1445C0.913013 37.2523 0.98058 37.3496 1.06545 37.4305L3.57063 39.9356C3.65151 40.0205 3.74878 40.0881 3.85655 40.1342C3.96432 40.1804 4.08033 40.2042 4.19757 40.2042C4.31481 40.2042 4.43083 40.1804 4.5386 40.1342C4.64636 40.0881 4.74363 40.0205 4.82451 39.9356L6.07839 38.6818C6.07839 38.6589 6.08745 38.6371 6.10358 38.6209C6.11971 38.6048 6.14158 38.5958 6.16439 38.5958C4.91395 37.341 3.66007 35.9977 2.40533 34.8333Z" fill="url(#paint7_linear_1329_9207)"/>
<path d="M23.1887 8.49512L20.1426 11.899L29.1012 20.8576L32.5051 17.8115L23.1887 8.49512Z" fill="url(#paint8_linear_1329_9207)"/>
<defs>
<linearGradient id="paint0_linear_1329_9207" x1="13.3106" y1="27.9818" x2="3.76125" y2="37.0905" gradientUnits="userSpaceOnUse">
<stop stop-color="#E28B5A"/>
<stop offset="1" stop-color="#B35E3E"/>
</linearGradient>
<linearGradient id="paint1_linear_1329_9207" x1="8.79476" y1="31.9925" x2="3.73933" y2="36.7818" gradientUnits="userSpaceOnUse">
<stop stop-color="#B35E3E" stop-opacity="0"/>
<stop offset="1" stop-color="#96492D"/>
</linearGradient>
<linearGradient id="paint2_linear_1329_9207" x1="37.4847" y1="3.70498" x2="12.1092" y2="29.1447" gradientUnits="userSpaceOnUse">
<stop stop-color="#FFCA4F"/>
<stop offset="1" stop-color="#F7AE30"/>
</linearGradient>
<linearGradient id="paint3_linear_1329_9207" x1="37.4847" y1="3.70498" x2="12.1092" y2="29.1447" gradientUnits="userSpaceOnUse">
<stop stop-color="#FFCA4F"/>
<stop offset="1" stop-color="#F7AE30"/>
</linearGradient>
<linearGradient id="paint4_linear_1329_9207" x1="389.313" y1="-178614" x2="210.095" y2="-178442" gradientUnits="userSpaceOnUse">
<stop stop-color="#E28B5A"/>
<stop offset="1" stop-color="#B35E3E"/>
</linearGradient>
<linearGradient id="paint5_linear_1329_9207" x1="29.3651" y1="11.7056" x2="24.559" y2="16.2519" gradientUnits="userSpaceOnUse">
<stop stop-color="#3F4C56"/>
<stop offset="1" stop-color="#27333E"/>
</linearGradient>
<linearGradient id="paint6_linear_1329_9207" x1="19.5233" y1="21.6129" x2="11.0551" y2="30.3116" gradientUnits="userSpaceOnUse">
<stop stop-color="#FFCA4F" stop-opacity="0"/>
<stop offset="1" stop-color="#F4901F"/>
</linearGradient>
<linearGradient id="paint7_linear_1329_9207" x1="327.704" y1="-167236" x2="190.078" y2="-167105" gradientUnits="userSpaceOnUse">
<stop stop-color="#B35E3E" stop-opacity="0"/>
<stop offset="1" stop-color="#96492D"/>
</linearGradient>
<linearGradient id="paint8_linear_1329_9207" x1="27.3128" y1="13.5637" x2="24.2222" y2="16.5307" gradientUnits="userSpaceOnUse">
<stop stop-color="#3F4C56" stop-opacity="0"/>
<stop offset="1" stop-color="#141414"/>
</linearGradient>
</defs>
</svg>
