<svg width="512" height="340" viewBox="0 0 512 340" fill="none" xmlns="http://www.w3.org/2000/svg">
<g clip-path="url(#clip0_1_1697)">
<path d="M512 0.334961H0V339.665H512V0.334961Z" fill="#F0F0F0"/>
<path d="M512 0H0V113H512V0Z" fill="#FF9811"/>
<path d="M512 227H0V340H512V227Z" fill="#6DA544"/>
<path d="M256 213.639C280.243 213.639 299.896 194.101 299.896 170C299.896 145.899 280.243 126.361 256 126.361C231.757 126.361 212.104 145.899 212.104 170C212.104 194.101 231.757 213.639 256 213.639Z" fill="#0052B4"/>
<path d="M256 197.273C271.151 197.273 283.434 185.063 283.434 170C283.434 154.937 271.151 142.726 256 142.726C240.849 142.726 228.566 154.937 228.566 170C228.566 185.063 240.849 197.273 256 197.273Z" fill="#F0F0F0"/>
<path d="M256 136.344L264.464 155.427L285.319 153.172L272.927 170L285.319 186.828L264.464 184.573L256 203.656L247.536 184.573L226.681 186.828L239.073 170L226.681 153.172L247.536 155.427L256 136.344Z" fill="#0052B4"/>
</g>
<defs>
<clipPath id="clip0_1_1697">
<rect width="512" height="340" fill="white"/>
</clipPath>
</defs>
</svg>
