<svg width="43" height="43" viewBox="0 0 43 43" fill="none" xmlns="http://www.w3.org/2000/svg">
<mask id="mask0_1327_6155" style="mask-type:luminance" maskUnits="userSpaceOnUse" x="0" y="0" width="43" height="43">
<path d="M-3.8147e-06 0.408203H42.5742V42.9825H-3.8147e-06V0.408203Z" fill="white"/>
</mask>
<g mask="url(#mask0_1327_6155)">
<path d="M17.429 3.99307L30.4781 0.496658C31.8491 0.129287 33.2583 0.942939 33.6256 2.31388L37.1221 15.3629C37.4895 16.7339 36.6758 18.1431 35.3049 18.5105L22.2559 22.0069C20.8849 22.3742 19.4757 21.5606 19.1083 20.1897L15.6118 7.14066C15.2443 5.76972 16.058 4.36051 17.429 3.99307Z" fill="#FF5368"/>
<path d="M16.277 4.65747C17.1338 4.88788 17.848 5.55579 18.0941 6.47445L20.87 16.8342C21.2679 18.3195 22.7946 19.2009 24.2799 18.8029L34.6396 16.0271C35.5586 15.7807 36.4938 16.0655 37.1217 16.6922C36.8912 17.549 36.2236 18.2634 35.3048 18.5094L22.2558 22.0058C20.8847 22.3732 19.4756 21.5595 19.1082 20.1886L15.6117 7.13959C15.3655 6.22092 15.6503 5.28544 16.277 4.65747Z" fill="#AB163E"/>
<path d="M5.45356 36.2486L8.94998 23.1996C9.31735 21.8286 10.7266 21.015 12.0976 21.3824L25.1466 24.8788C26.5176 25.2461 27.3312 26.6554 26.9638 28.0264L23.4673 41.0754C23.0999 42.4464 21.6907 43.2602 20.3197 42.8928L7.27072 39.3961C5.89991 39.0289 5.08619 37.6196 5.45356 36.2486Z" fill="#FF5368"/>
<path d="M8.94998 23.2019C9.19623 22.2832 9.91042 21.6155 10.7672 21.385C11.394 22.0131 11.6787 22.9485 11.4324 23.8671L8.65656 34.2268C8.25858 35.7121 9.13999 37.2387 10.6253 37.6368L20.985 40.4127C21.9037 40.6588 22.5714 41.3731 22.8019 42.2299C22.1739 42.8567 21.2385 43.1411 20.3198 42.8951L7.27081 39.3987C5.89979 39.0313 5.0862 37.6221 5.45357 36.2511L8.94998 23.2019Z" fill="#AB163E"/>
<path d="M13.4842 29.3445C12.4197 29.3445 11.5568 28.4815 11.5568 27.417C11.5568 26.3525 12.4197 25.4895 13.4842 25.4895C14.5488 25.4895 15.4117 26.3525 15.4117 27.417C15.4117 28.4815 14.5488 29.3445 13.4842 29.3445Z" fill="#FFF9EB"/>
<path d="M18.9354 38.7878C17.8709 38.7878 17.0079 37.9249 17.0079 36.8604C17.0079 35.7958 17.8709 34.9329 18.9354 34.9329C19.9999 34.9329 20.8629 35.7958 20.8629 36.8604C20.8629 37.9249 19.9999 38.7878 18.9354 38.7878Z" fill="#FFF9EB"/>
<path d="M16.2088 34.0681C15.1444 34.0681 14.2814 33.2051 14.2814 32.1406C14.2814 31.0761 15.1444 30.2131 16.2088 30.2131C17.2734 30.2131 18.1363 31.0761 18.1363 32.1406C18.1363 33.2051 17.2734 34.0681 16.2088 34.0681Z" fill="#FFF9EB"/>
<path d="M29.0956 8.45873C28.0311 8.45873 27.1681 7.59575 27.1681 6.53127C27.1681 5.46674 28.0311 4.60376 29.0956 4.60376C30.1601 4.60376 31.0231 5.46674 31.0231 6.53127C31.0231 7.59575 30.1601 8.45873 29.0956 8.45873Z" fill="#FFF9EB"/>
<path d="M21.6483 10.4529C20.5838 10.4529 19.7208 9.58989 19.7208 8.52536C19.7208 7.46084 20.5838 6.5979 21.6483 6.5979C22.7128 6.5979 23.5758 7.46084 23.5758 8.52536C23.5758 9.58989 22.7128 10.4529 21.6483 10.4529Z" fill="#FFF9EB"/>
<path d="M31.0917 15.905C30.0272 15.905 29.1642 15.0421 29.1642 13.9776C29.1642 12.913 30.0272 12.05 31.0917 12.05C32.1562 12.05 33.0192 12.913 33.0192 13.9776C33.0192 15.0421 32.1562 15.905 31.0917 15.905Z" fill="#FFF9EB"/>
<path d="M23.6426 17.9001C22.578 17.9001 21.7151 17.0372 21.7151 15.9726C21.7151 14.9081 22.578 14.0452 23.6426 14.0452C24.7071 14.0452 25.57 14.9081 25.57 15.9726C25.57 17.0372 24.7071 17.9001 23.6426 17.9001Z" fill="#FFF9EB"/>
</g>
</svg>
