<svg width="43" height="43" viewBox="0 0 43 43" fill="none" xmlns="http://www.w3.org/2000/svg">
<path d="M21.5035 41.2092C32.3883 41.2092 41.2122 32.3854 41.2122 21.5006C41.2122 10.6158 32.3883 1.79199 21.5035 1.79199C10.6188 1.79199 1.79492 10.6158 1.79492 21.5006C1.79492 32.3854 10.6188 41.2092 21.5035 41.2092Z" fill="url(#paint0_linear_1327_6145)"/>
<path d="M7.79492 35.6537C10.5746 38.348 14.0864 40.1637 17.8919 40.8741C21.6973 41.5845 25.6276 41.1582 29.1922 39.6483C32.7568 38.1384 35.7976 35.612 37.9349 32.3843C40.0723 29.1567 41.2115 25.371 41.2102 21.4998C41.2102 16.0354 39.0602 11.1979 35.4766 7.61426L7.79492 35.6537Z" fill="url(#paint1_linear_1327_6145)"/>
<path d="M28.3122 20.9627L35.1208 17.9166L41.2122 22.1306V21.5002C41.2122 16.9319 39.6891 12.7213 37.091 9.40689L34.6719 16.1252H34.5859L27.8675 19.081L22.4031 14.867V7.25689L28.2262 2.87089C26.0671 2.10534 23.7943 1.71019 21.5035 1.70215C19.0852 1.70215 16.9352 2.15021 14.7852 2.86659L20.6083 7.25259V14.867L15.1438 19.081L8.42466 16.1252H8.33866L5.91604 9.40689C3.31798 12.7213 1.79492 16.931 1.79492 21.5002V22.1271L7.8863 17.9131L14.6949 20.9593L16.7589 27.6784L12.0109 32.4265L5.20224 32.6054C7.71086 36.3679 11.5662 39.1414 16.0382 40.489L13.8882 33.2332L18.3671 28.7543H24.8171L29.2031 33.4129L27.0531 40.4899C31.532 39.236 35.2945 36.3688 37.8891 32.6063L30.8122 32.4274L26.3333 27.6793L28.3122 20.9627Z" fill="url(#paint2_linear_1327_6145)"/>
<path d="M34.6683 16.2156H34.5823L27.864 19.1723L25.5351 17.3809C22.4855 20.3367 19.35 23.4723 16.3942 26.4281L16.7528 27.5926L12.0039 32.3372H10.3019L7.43555 35.2079C9.7865 37.6579 12.7591 39.4231 16.0355 40.3145L13.8855 33.0587L18.3644 28.5798H24.8144L29.2004 33.2385L27.0504 40.3154C31.5293 39.0615 35.2918 36.1943 37.8864 32.4318L30.8164 32.2512L26.3375 27.5031L28.4015 20.7848L35.2101 17.7387L41.3015 21.9527V21.3257C41.3015 16.7574 39.7784 12.5469 37.1804 9.23242L34.6683 16.2156Z" fill="url(#paint3_linear_1327_6145)"/>
<defs>
<linearGradient id="paint0_linear_1327_6145" x1="7.70738" y1="5.87811" x2="36.0872" y2="37.8054" gradientUnits="userSpaceOnUse">
<stop stop-color="#EAECF7"/>
<stop offset="1" stop-color="#CDD3F1"/>
</linearGradient>
<linearGradient id="paint1_linear_1327_6145" x1="22.1631" y1="22.1807" x2="37.9485" y2="37.2135" gradientUnits="userSpaceOnUse">
<stop stop-color="#E2E5F4" stop-opacity="0"/>
<stop offset="1" stop-color="#9AA6E2"/>
</linearGradient>
<linearGradient id="paint2_linear_1327_6145" x1="0.612429" y1="1.38564" x2="41.7365" y2="42.3859" gradientUnits="userSpaceOnUse">
<stop stop-color="#3F4C56"/>
<stop offset="1" stop-color="#27333E"/>
</linearGradient>
<linearGradient id="paint3_linear_1327_6145" x1="22.335" y1="22.2127" x2="36.2993" y2="37.0863" gradientUnits="userSpaceOnUse">
<stop stop-color="#3F4C56" stop-opacity="0"/>
<stop offset="1" stop-color="#141414"/>
</linearGradient>
</defs>
</svg>
