<svg width="43" height="43" viewBox="0 0 43 43" fill="none" xmlns="http://www.w3.org/2000/svg">
<path d="M3.81262 28.1883C2.99521 22.8751 2.17781 17.5621 1.36041 12.2489C1.17914 11.0711 2.51926 10.2678 3.47251 10.9828C6.01919 12.8928 8.56573 14.8027 11.1124 16.7127C11.9509 17.3416 13.1455 17.1369 13.7268 16.2648L20.0872 6.72418C20.7593 5.71596 22.2407 5.71596 22.9128 6.72418L29.2732 16.2648C29.8545 17.1369 31.0491 17.3414 31.8876 16.7127C34.4343 14.8027 36.9808 12.8928 39.5275 10.9828C40.4807 10.2678 41.8209 11.0711 41.6397 12.2489C40.8223 17.5621 40.0049 22.8751 39.1875 28.1883H3.81262Z" fill="url(#paint0_linear_3208_47028)"/>
<path d="M37.3431 37.0319H5.65692C4.63836 37.0319 3.81262 36.2062 3.81262 35.1876V31.1362H39.1875V35.1876C39.1874 36.2062 38.3616 37.0319 37.3431 37.0319Z" fill="url(#paint1_linear_3208_47028)"/>
<defs>
<linearGradient id="paint0_linear_3208_47028" x1="21.5" y1="5.96802" x2="21.5" y2="28.1883" gradientUnits="userSpaceOnUse">
<stop stop-color="#FFCB77"/>
<stop offset="1" stop-color="#FF9D00"/>
</linearGradient>
<linearGradient id="paint1_linear_3208_47028" x1="21.5001" y1="31.1362" x2="21.5001" y2="37.0319" gradientUnits="userSpaceOnUse">
<stop stop-color="#FFCB77"/>
<stop offset="1" stop-color="#FF9D00"/>
</linearGradient>
</defs>
</svg>
